<?xml version="1.0" encoding="utf-8"?>
<!DOCTYPE svg PUBLIC "-//W3C//DTD SVG 1.1//EN" "http://www.w3.org/Graphics/SVG/1.1/DTD/svg11.dtd">
<svg version="1.1" xmlns="http://www.w3.org/2000/svg" xmlns:xlink="http://www.w3.org/1999/xlink" x="0px" y="0px" viewBox="0 0 256 256" enable-background="new 0 0 256 256" xml:space="preserve">
<g>
    <g>
        <path fill="#FFF" d="M86.7,134.8c-6.5,0-11.7,5.5-11.7,12.3s5.3,12.3,11.7,12.3c6.5,0,11.7-5.5,11.7-12.3S93.1,134.8,86.7,134.8z"/>
        <path fill="#FFF" d="M163,134.8c-6.5,0-11.7,5.5-11.7,12.3s5.3,12.3,11.7,12.3c6.5,0,11.7-5.5,11.7-12.3S169.5,134.8,163,134.8z"/>
        <path fill="#FFF" d="M128,10C62.8,10,10,62.8,10,128c0,65.2,52.8,118,118,118c65.2,0,118-52.8,118-118C246,62.8,193.2,10,128,10z M128,240.5c-62.1,0-112.5-50.4-112.5-112.5C15.5,65.9,65.9,15.5,128,15.5c62.1,0,112.5,50.4,112.5,112.5C240.5,190.1,190.1,240.5,128,240.5z"/>
        <path fill="#FFF" d="M177.7,114.9h-6.4c-3.4-8.4-12.2-18.5-12.2-18.5c-1.9-2.3-3.2-2.2-3.2-2.2L142.8,94l-0.2-0.1l-23.4,0.2l0,0h-6.7c-8.9,4.8-19.6,20.8-19.6,20.8c-8.3-0.6-17.9,1.2-17.9,1.2c-10.1,1.9-11.6,7.3-11.6,7.3v18.3c0.3,4.4,4.6,6.2,4.6,6.2c1.1-19.6,18.7-19.6,18.7-19.6C105.3,130,105,148,105,148h39.4c1.1-19.6,18.4-19.6,18.4-19.6c19,1.6,18.6,19.6,18.6,19.6c4.6-1.1,5.2-5.6,5.2-5.6v-19.6C184.6,116.9,177.7,114.9,177.7,114.9z M130,113.7l-26.9-0.2c11.4-15.2,12.7-13.8,12.8-13.8c0.1,0,5.1-0.1,5.6-0.1l8.8,0.2L130,113.7z M137.8,113.6l-0.1-13.3c2.5-0.1,10.6,0,14.7,0.1c0,0,0,0,0,0c2.6,0,4.2,2.8,4.2,2.8l6.5,10.3L137.8,113.6z"/>
    </g>
</g>
</svg>